<svg id="visual" viewBox="0 0 900 600" width="900" height="600" xmlns="http://www.w3.org/2000/svg" xmlns:xlink="http://www.w3.org/1999/xlink" version="1.1"><rect x="0" y="0" width="900" height="600" fill="#06d9a4"></rect><defs><linearGradient id="grad1_0" x1="33.3%" y1="0%" x2="100%" y2="100%"><stop offset="20%" stop-color="#91f8cb" stop-opacity="1"></stop><stop offset="80%" stop-color="#91f8cb" stop-opacity="1"></stop></linearGradient></defs><defs><linearGradient id="grad1_1" x1="33.3%" y1="0%" x2="100%" y2="100%"><stop offset="20%" stop-color="#91f8cb" stop-opacity="1"></stop><stop offset="80%" stop-color="#06d9a4" stop-opacity="1"></stop></linearGradient></defs><defs><linearGradient id="grad2_0" x1="0%" y1="0%" x2="66.7%" y2="100%"><stop offset="20%" stop-color="#91f8cb" stop-opacity="1"></stop><stop offset="80%" stop-color="#91f8cb" stop-opacity="1"></stop></linearGradient></defs><defs><linearGradient id="grad2_1" x1="0%" y1="0%" x2="66.7%" y2="100%"><stop offset="20%" stop-color="#06d9a4" stop-opacity="1"></stop><stop offset="80%" stop-color="#91f8cb" stop-opacity="1"></stop></linearGradient></defs><g transform="translate(900, 0)"><path d="M0 513.8C-46.9 484.1 -93.9 454.5 -142.1 437.5C-190.4 420.5 -240.1 416.1 -288.6 397.2C-337.1 378.4 -384.5 345 -415.7 302C-446.9 259 -461.9 206.4 -475.5 154.5C-489.2 102.6 -501.5 51.3 -513.8 0L0 0Z" fill="#63e9b7"></path><path d="M0 256.9C-23.5 242.1 -46.9 227.2 -71.1 218.7C-95.2 210.2 -120 208.1 -144.3 198.6C-168.6 189.2 -192.2 172.5 -207.8 151C-223.4 129.5 -230.9 103.2 -237.8 77.3C-244.6 51.3 -250.7 25.6 -256.9 0L0 0Z" fill="#91f8cb"></path></g><g transform="translate(0, 600)"><path d="M0 -513.8C58.3 -516.1 116.5 -518.5 158.8 -488.6C201 -458.8 227.2 -396.8 257.4 -354.3C287.7 -311.9 322 -289 356 -258.6C389.9 -228.3 423.6 -190.5 449.8 -146.2C476.1 -101.8 494.9 -50.9 513.8 0L0 0Z" fill="#63e9b7"></path><path d="M0 -256.9C29.1 -258.1 58.3 -259.2 79.4 -244.3C100.5 -229.4 113.6 -198.4 128.7 -177.2C143.8 -155.9 161 -144.5 178 -129.3C195 -114.1 211.8 -95.3 224.9 -73.1C238.1 -50.9 247.5 -25.5 256.9 0L0 0Z" fill="#91f8cb"></path></g></svg>